<svg width="1280" height="720" viewBox="0 0 1280 720" fill="none" xmlns="http://www.w3.org/2000/svg">
  <rect width="1280" height="720" rx="24" fill="#f7f9fc"/>
  <rect x="40" y="40" width="1200" height="640" rx="18" fill="#ffffff" stroke="#d9e0ea"/>
  <text x="72" y="92" font-family="Arial, sans-serif" font-size="30" font-weight="700" fill="#1f2937">Карта оборудования</text>
  <text x="72" y="124" font-family="Arial, sans-serif" font-size="17" fill="#64748b">Отслеживание оборудования в реальном времени на плане здания</text>

  <rect x="72" y="156" width="790" height="480" rx="18" fill="#eef2f7" stroke="#d7dee9"/>
  <g stroke="#cbd5e1" stroke-width="3" fill="#ffffff">
    <rect x="108" y="198" width="170" height="120" rx="10"/>
    <rect x="300" y="198" width="170" height="120" rx="10"/>
    <rect x="492" y="198" width="170" height="120" rx="10"/>
    <rect x="684" y="198" width="140" height="120" rx="10"/>
    <rect x="108" y="430" width="170" height="154" rx="10"/>
    <rect x="300" y="430" width="170" height="154" rx="10"/>
    <rect x="492" y="430" width="170" height="154" rx="10"/>
    <rect x="684" y="430" width="140" height="154" rx="10"/>
  </g>
  <rect x="108" y="342" width="716" height="62" rx="14" fill="#dbeafe" stroke="#93c5fd"/>
  <text x="412" y="380" font-family="Arial, sans-serif" font-size="17" font-weight="700" fill="#1d4ed8">коридор</text>

  <g font-family="Arial, sans-serif" font-size="14" fill="#64748b">
    <text x="142" y="264">Кабинет 101</text>
    <text x="334" y="264">Операционная</text>
    <text x="526" y="264">Склад</text>
    <text x="716" y="264">Пост</text>
    <text x="142" y="510">Палата 1</text>
    <text x="334" y="510">Палата 2</text>
    <text x="526" y="510">Диагностика</text>
    <text x="716" y="510">Лифт</text>
  </g>

  <g>
    <circle cx="370" cy="365" r="18" fill="#22c55e" stroke="#ffffff" stroke-width="5"/>
    <text x="396" y="371" font-family="Arial, sans-serif" font-size="15" font-weight="700" fill="#166534">TRACK-12</text>
    <circle cx="585" cy="245" r="18" fill="#f59e0b" stroke="#ffffff" stroke-width="5"/>
    <text x="611" y="251" font-family="Arial, sans-serif" font-size="15" font-weight="700" fill="#92400e">TRACK-7</text>
    <circle cx="210" cy="488" r="18" fill="#3b82f6" stroke="#ffffff" stroke-width="5"/>
    <text x="236" y="494" font-family="Arial, sans-serif" font-size="15" font-weight="700" fill="#1d4ed8">TRACK-3</text>
    <circle cx="740" cy="372" r="18" fill="#ef4444" stroke="#ffffff" stroke-width="5"/>
    <text x="766" y="378" font-family="Arial, sans-serif" font-size="15" font-weight="700" fill="#991b1b">TRACK-2</text>
  </g>

  <rect x="890" y="156" width="318" height="480" rx="18" fill="#f8fafc" stroke="#d7dee9"/>
  <text x="920" y="204" font-family="Arial, sans-serif" font-size="22" font-weight="700" fill="#1f2937">Статус</text>

  <g font-family="Arial, sans-serif">
    <rect x="920" y="232" width="258" height="76" rx="14" fill="#ffffff" stroke="#dbe3ee"/>
    <circle cx="946" cy="270" r="9" fill="#22c55e"/>
    <text x="968" y="262" font-size="16" font-weight="700" fill="#111827">TRACK-12</text>
    <text x="968" y="286" font-size="14" fill="#64748b">В здании · связь 98%</text>

    <rect x="920" y="324" width="258" height="76" rx="14" fill="#ffffff" stroke="#dbe3ee"/>
    <circle cx="946" cy="362" r="9" fill="#f59e0b"/>
    <text x="968" y="354" font-size="16" font-weight="700" fill="#111827">TRACK-7</text>
    <text x="968" y="378" font-size="14" fill="#64748b">Буферная зона · 42%</text>

    <rect x="920" y="416" width="258" height="76" rx="14" fill="#ffffff" stroke="#dbe3ee"/>
    <circle cx="946" cy="454" r="9" fill="#3b82f6"/>
    <text x="968" y="446" font-size="16" font-weight="700" fill="#111827">TRACK-3</text>
    <text x="968" y="470" font-size="14" fill="#64748b">Обновлено: 12 сек назад</text>

    <rect x="920" y="508" width="258" height="76" rx="14" fill="#ffffff" stroke="#dbe3ee"/>
    <circle cx="946" cy="546" r="9" fill="#ef4444"/>
    <text x="968" y="538" font-size="16" font-weight="700" fill="#111827">TRACK-2</text>
    <text x="968" y="562" font-size="14" fill="#64748b">Слабая связь · проверить</text>
  </g>
</svg>
